<?xml version="1.0" encoding="UTF-8" standalone="no"?>
<svg
   version="1.1"
   viewBox="-5 -10 110 110"
   id="svg4"
   width="110"
   height="110"
   xmlns="http://www.w3.org/2000/svg"
   xmlns:svg="http://www.w3.org/2000/svg">
  <defs
     id="defs4" />
  <path
     d="m 9.9637785,45.090803 c 0,-10.501931 0.3306135,-18.157561 1.3507945,-23.872708 1.001271,-5.653451 2.545736,-8.603267 4.349938,-10.411871 1.804203,-1.8087262 4.746642,-3.3569675 10.385831,-4.3608455 5.700613,-1.0227265 13.337459,-1.3541807 23.813005,-1.3541807 4.005106,0 7.254532,-3.2575733 7.254532,-7.2727217 0,-4.0151483 -3.249426,-7.2727216 -7.254532,-7.2727216 -10.522821,0 -19.283758,0.3124968 -26.359345,1.5767261 C 16.362881,-6.5990962 10.137525,-4.2222495 5.4051509,0.52211042 0.67265643,5.2664703 -1.6982459,11.506951 -2.9734718,18.666338 c -1.2610797,7.092844 -1.5727827,15.876352 -1.5727827,26.425434 0,10.303023 0.3117152,18.958774 1.5774981,26.008465 1.2705105,7.111752 3.64141283,13.34302 8.326632,18.129684 4.6899344,4.796359 10.8817994,7.296357 18.0565324,8.669447 7.108112,1.358908 15.888636,1.737696 26.448817,1.737696 10.385832,0 19.070959,-0.378788 26.146547,-1.737696 7.145956,-1.37309 13.327785,-3.873088 18.051696,-8.63163 4.722943,-4.758541 7.178962,-10.96593 8.520332,-18.106652 1.33193,-7.069086 1.69079,-15.73817 1.69079,-26.070283 0,-4.015148 -3.24943,-7.272721 -7.254537,-7.272721 -4.005107,0 -7.254534,3.257573 -7.254534,7.272721 0,10.21781 -0.377839,17.727259 -1.435792,23.375739 -1.04851,5.572965 -2.644882,8.617449 -4.552945,10.53975 -1.903348,1.922302 -4.930786,3.536967 -10.494528,4.607027 -5.639312,1.084278 -13.163351,1.477331 -23.416424,1.477331 -10.442537,0 -18.056532,-0.392993 -23.728367,-1.477331 C 20.533995,82.538508 17.558428,80.928715 15.716503,79.044231 13.860309,77.150293 12.31594,74.129447 11.309978,68.528118 10.294537,62.860486 9.9638995,55.331764 9.9638995,45.090561 Z"
     id="path1"
     style="fill:#ffffff;stroke-width:1.2106" />
  <path
     d="M 76.996872,0.74417086 94.099433,17.884764 101.79323,10.171679 c 3.30613,-3.314422 3.30613,-8.6837511 0,-11.9980516 l -5.129199,-5.1420566 c -3.306132,-3.3144218 -8.666749,-3.3144218 -11.97276,0 z"
     id="path2"
     style="fill:#ffffff;stroke-width:1.2106" />
  <path
     d="m 40.800379,68.826542 c 1.851358,-0.241479 3.570561,-1.089017 4.893062,-2.410059 L 88.115532,23.888032 71.01297,6.7425904 28.59088,49.271043 c -1.317665,1.325817 -2.167896,3.049208 -2.408747,4.905328 l -1.379087,10.601326 c -0.410896,3.153452 2.271758,5.842783 5.422039,5.430905 z"
     id="path3"
     style="fill:#ffffff;stroke-width:1.2106" />
</svg>
