<?xml version="1.0" standalone="no"?>
<!DOCTYPE svg PUBLIC "-//W3C//DTD SVG 20010904//EN"
 "http://www.w3.org/TR/2001/REC-SVG-20010904/DTD/svg10.dtd">
<svg version="1.0" xmlns="http://www.w3.org/2000/svg"
 width="512.000000pt" height="512.000000pt" viewBox="0 0 512.000000 512.000000"
 preserveAspectRatio="xMidYMid meet">

<g transform="translate(0.000000,512.000000) scale(0.100000,-0.100000)"
fill="#000000" stroke="none">
<path d="M2171 5106 c-51 -18 -111 -74 -134 -125 -36 -82 -20 -191 38 -251 35
-37 53 -244 37 -426 -23 -258 -71 -444 -231 -891 -123 -344 -149 -442 -177
-663 -27 -215 -19 -419 28 -723 21 -138 21 -138 45 -132 123 30 288 25 417
-15 189 -59 300 -134 481 -325 188 -199 311 -279 495 -325 143 -35 128 -39
134 33 3 34 8 111 11 171 3 61 29 270 58 465 52 354 52 357 52 596 -1 344 -27
475 -185 914 -161 450 -209 636 -232 895 -16 182 2 389 37 426 56 59 73 165
40 248 -21 52 -90 114 -143 130 -56 17 -724 15 -771 -2z m509 -654 c0 -342 52
-582 240 -1112 99 -280 130 -376 130 -404 0 -14 -48 -16 -490 -16 -442 0 -490
2 -490 16 0 28 31 124 130 404 188 530 240 770 240 1112 l0 168 120 0 120 0 0
-168z"/>
<path d="M1791 1599 c20 -174 25 -500 9 -612 -16 -109 -38 -199 -82 -337 -35
-108 -41 -138 -42 -220 -1 -112 17 -161 86 -236 90 -98 202 -143 426 -171 186
-23 558 -23 744 0 224 28 336 73 426 171 69 75 87 124 86 236 -1 81 -6 111
-38 205 -43 129 -72 245 -82 333 -3 34 -9 64 -13 66 -3 2 -35 0 -71 -5 -86
-11 -241 6 -336 36 -160 53 -281 131 -404 260 -41 43 -113 119 -160 168 -47
49 -110 106 -140 126 -104 70 -233 115 -361 127 l-65 7 17 -154z"/>
</g>
</svg>
