<?xml version="1.0" standalone="no"?>
<!DOCTYPE svg PUBLIC "-//W3C//DTD SVG 20010904//EN"
 "http://www.w3.org/TR/2001/REC-SVG-20010904/DTD/svg10.dtd">
<svg version="1.0" xmlns="http://www.w3.org/2000/svg"
 width="512.000000pt" height="512.000000pt" viewBox="0 0 512.000000 512.000000"
 preserveAspectRatio="xMidYMid meet">

<g transform="translate(0.000000,512.000000) scale(0.100000,-0.100000)"
fill="#000000" stroke="none">
<path d="M0 4920 l0 -150 349 0 349 0 5 -27 c3 -16 89 -651 192 -1413 l187
-1385 -64 -65 c-100 -101 -148 -218 -148 -360 0 -137 41 -246 130 -343 l52
-57 -46 -52 c-168 -192 -192 -496 -57 -719 46 -75 140 -171 211 -214 30 -18
91 -46 135 -61 69 -24 96 -27 190 -27 92 0 124 4 192 27 259 84 433 324 433
596 0 98 -18 177 -60 268 l-29 62 780 0 c428 0 779 -2 779 -4 0 -2 -14 -33
-30 -68 -110 -236 -60 -508 130 -699 247 -249 631 -248 880 1 124 123 181 262
181 440 0 106 -17 184 -60 272 l-27 58 48 0 49 0 -3 148 -3 147 -1715 5 -1715
5 -37 23 c-80 49 -113 116 -106 212 5 74 40 129 105 167 l48 28 1667 3 c918 1
1668 6 1668 10 0 4 103 590 230 1302 126 711 229 1295 227 1296 -1 1 -917 36
-2036 78 -1119 42 -2036 78 -2038 80 -3 2 -20 120 -39 263 -19 142 -37 268
-40 281 l-4 22 -480 0 -480 0 0 -150z m1544 -740 c143 -6 262 -13 265 -16 7
-6 28 -474 22 -480 -5 -4 -681 -6 -681 -1 0 1 -16 117 -35 257 -19 140 -35
256 -35 258 0 1 46 0 103 -3 56 -3 219 -10 361 -15z m1031 -38 l160 -7 3 -227
2 -228 -299 0 -299 0 -6 28 c-3 15 -8 123 -12 240 l-7 213 149 -7 c82 -3 221
-9 309 -12z m875 -33 c146 -6 267 -12 268 -14 4 -3 -13 -244 -24 -357 l-6 -58
-324 0 -324 0 0 220 0 220 72 0 c40 0 192 -5 338 -11z m1025 -40 c154 -5 281
-12 284 -14 2 -2 -11 -88 -29 -190 l-33 -185 -354 0 -354 0 6 63 c12 133 25
303 25 325 0 22 1 23 88 17 48 -3 213 -10 367 -16z m-2622 -811 c4 -68 10
-185 13 -260 l7 -138 -307 0 c-168 0 -306 3 -306 8 0 10 -59 441 -65 480 l-6
32 329 0 329 0 6 -122z m887 -138 l0 -260 -284 0 -283 0 -7 148 c-3 81 -9 198
-13 260 l-6 112 297 0 296 0 0 -260z m925 203 c-5 -52 -35 -437 -35 -455 0 -5
-133 -8 -295 -8 l-295 0 0 260 0 260 315 0 316 0 -6 -57z m975 45 c0 -12 -76
-444 -85 -485 l-5 -23 -311 0 -311 0 6 58 c3 31 10 122 16 202 6 80 13 171 16
203 l6 57 334 0 c253 0 334 -3 334 -12z m-2748 -968 c3 -85 9 -201 12 -257 l5
-103 -270 0 c-208 0 -269 3 -269 13 0 14 -57 439 -65 480 l-5 27 293 -2 292
-3 7 -155z m848 -100 l0 -260 -264 0 -263 0 -6 58 c-4 31 -9 148 -13 260 l-7
202 277 0 276 0 0 -260z m865 208 c-5 -49 -35 -444 -35 -460 0 -5 -119 -8
-265 -8 l-265 0 0 260 0 260 285 0 285 0 -5 -52z m893 40 c-3 -7 -25 -124 -48
-260 l-44 -248 -269 0 -269 0 6 58 c3 31 10 125 16 207 6 83 13 174 16 203 l5
52 296 0 c232 0 294 -3 291 -12z"/>
</g>
</svg>
